<svg xmlns="http://www.w3.org/2000/svg" width="200mm" height="200mm" viewBox="0 0 200 200"><path d="m0 0 5.234 1.124.212-1.03L.22-1.02l.375-1.746-1.045-.225-.969 4.513 1.045.225Z" style="fill:#2857a4;fill-opacity:1;fill-rule:nonzero;stroke:none" transform="matrix(2.03033 0 0 -2.03035 11.823 118.453)"/><path d="m0 0-2.818-.251.206-2.384 2.828.245.081-1.04-6.398-.554-.089 1.039 2.496.216L-3.9-.346l-2.497-.207-.089 1.022 6.405.563z" style="fill:#2857a4;fill-opacity:1;fill-rule:nonzero;stroke:none" transform="matrix(2.03033 0 0 -2.03035 20.932 105)"/><path d="m0 0-6.407.268.169 4.038 1.077-.044-.125-3.006 1.524-.063.129 2.85 1.06-.037-.121-2.858 1.67-.07.121 3.094 1.076-.046z" style="fill:#2857a4;fill-opacity:1;fill-rule:nonzero;stroke:none" transform="matrix(2.03033 0 0 -2.03035 20.73 101.262)"/><path d="M0 0c-.094.245-.318.41-.676.491-.338.078-.603.027-.799-.152a1.213 1.213 0 0 1-.373-.615l-.269-1.174 1.909-.439.269 1.174A1.2 1.2 0 0 1 0 0m-1.974 1.316c.48.279.994.357 1.541.231.549-.128.979-.42 1.29-.881.313-.462.407-.958.286-1.489L.842-2.131l2.25-.517-.235-1.016L-3.4-2.225l.525 2.326c.122.53.422.936.901 1.215" style="fill:#2857a4;fill-opacity:1;fill-rule:nonzero;stroke:none" transform="matrix(2.03033 0 0 -2.03035 16.148 79.503)"/><path d="M0 0c-.069.237-.247.409-.533.514-.277.1-.519.083-.728-.053-.209-.135-.364-.344-.466-.622l-.414-1.131 1.67-.611.422 1.128C.053-.496.068-.238 0 0m3.747-.855L.895-1.49l-.284-.774 2.32-.849-.367-.976-6.03 2.206.819 2.24c.187.511.52.882.999 1.11.479.23.974.251 1.487.063A2.131 2.131 0 0 0 .863.764c.256-.355.371-.714.347-1.078l2.981.648z" style="fill:#2857a4;fill-opacity:1;fill-rule:nonzero;stroke:none" transform="matrix(2.03033 0 0 -2.03035 18.995 69.162)"/><path d="m0 0-5.708 2.922 1.843 3.597.959-.491-1.371-2.676 1.359-.695 1.309 2.535.947-.476-1.305-2.546 1.488-.763L.923 4.168l.96-.491Z" style="fill:#2857a4;fill-opacity:1;fill-rule:nonzero;stroke:none" transform="matrix(2.03033 0 0 -2.03035 27.739 68.067)"/><path d="M0 0c.345-.018.673-.152.981-.399.381-.304.617-.719.706-1.243.089-.526-.055-1.069-.435-1.632-.411-.608-.95-.942-1.616-1.006-.668-.063-1.228.075-1.679.412l.569.844a1.26 1.26 0 0 1 .986-.202c.354.069.634.256.839.56.189.282.279.536.268.765a.868.868 0 0 1-.257.583.607.607 0 0 1-.464.211 1.1 1.1 0 0 1-.514-.135 2.703 2.703 0 0 1-.673-.482 4.048 4.048 0 0 0-.706-.547 2.055 2.055 0 0 0-1.054-.342c-.352-.01-.704.117-1.055.381-.322.25-.548.62-.678 1.111-.131.492-.002 1.025.386 1.601.438.648.967.958 1.585.935.62-.024 1.082-.158 1.39-.397L-1.99.174a1.23 1.23 0 0 1-.772.198c-.277-.021-.518-.183-.723-.486-.211-.314-.288-.572-.232-.776a.859.859 0 0 1 .293-.466.555.555 0 0 1 .53-.104c.195.058.372.14.53.247.174.117.375.278.604.485.23.205.502.387.818.544.283.141.597.202.942.184" style="fill:#2857a4;fill-opacity:1;fill-rule:nonzero;stroke:none" transform="matrix(2.03033 0 0 -2.03035 32.214 49.825)"/><path d="M0 0a.907.907 0 0 1-.301.571.907.907 0 0 1-.592.223c-.233.007-.464-.121-.695-.384l-.933-1.064 1.303-1.142.911 1.039C-.068-.486.034-.233 0 0m-2.209 1.636c-.001.198-.09.375-.266.529a.646.646 0 0 1-.534.168c-.198-.028-.383-.138-.553-.332l-.863-.985 1.094-.959.857.979c.178.202.266.403.265.6m1.738.164c.354-.019.701-.197 1.043-.533a1.71 1.71 0 0 0 .543-1.282C1.112-.514.922-.979.546-1.408l-1.647-1.877L-5.93.948l1.642 1.872c.337.386.72.598 1.145.64.427.041.805-.046 1.133-.262.337-.223.552-.483.646-.776.093-.293.127-.531.099-.716.176.083.442.114.794.094" style="fill:#2857a4;fill-opacity:1;fill-rule:nonzero;stroke:none" transform="matrix(2.03033 0 0 -2.03035 39.883 44.97)"/><path d="m0 0 1.599-1.775-.716-.644-1.604 1.77L-4.849.954l.8.718 2.89-1.109-.793 2.997.8.718z" style="fill:#2857a4;fill-opacity:1;fill-rule:nonzero;stroke:none" transform="matrix(2.03033 0 0 -2.03035 44.525 37.439)"/><path d="m0 0 3.056-4.395-.868-.592L-.856-.595l-1.467-1.02-.61.877L.856 1.897l.61-.877z" style="fill:#2857a4;fill-opacity:1;fill-rule:nonzero;stroke:none" transform="matrix(2.03033 0 0 -2.03035 49.468 26.152)"/><path d="m0 0-3.019 5.658L.547 7.56l.508-.951-2.654-1.415.719-1.347 2.523 1.335.505-.932-2.525-1.347L.41 1.43l2.727 1.465.508-.951Z" style="fill:#2857a4;fill-opacity:1;fill-rule:nonzero;stroke:none" transform="matrix(2.03033 0 0 -2.03035 59.193 32.63)"/><path d="M0 0c.134.208.146.456.036.74-.104.274-.277.446-.516.513-.241.069-.499.05-.776-.057L-2.38.765l.638-1.661 1.127.424c.277.106.482.264.615.472m1.82-3.385L-.534-1.654l-.77-.294.886-2.306-.977-.366-2.301 5.995 2.225.854a1.912 1.912 0 0 0 1.494-.022c.488-.211.83-.57 1.024-1.079.164-.424.195-.849.097-1.276-.099-.427-.294-.75-.584-.97l2.448-1.821z" style="fill:#2857a4;fill-opacity:1;fill-rule:nonzero;stroke:none" transform="matrix(2.03033 0 0 -2.03035 70.46 18.863)"/><path d="m0 0-1.742 6.172.979.276L.98.277Z" style="fill:#2857a4;fill-opacity:1;fill-rule:nonzero;stroke:none" transform="matrix(2.03033 0 0 -2.03035 77.288 24.747)"/><path d="m0 0-.396-2.642 1.7.317zm-.783-5.252-1.047-.204.986 6.724 1.168.216 3.344-5.909-1.065-.198-.748 1.322-2.416-.449Z" style="fill:#2857a4;fill-opacity:1;fill-rule:nonzero;stroke:none" transform="matrix(2.03033 0 0 -2.03035 83.61 12.722)"/><path d="m0 0-2.469 4.437.208-4.55-1.042-.048-.294 6.425 1.236.056L.116 1.875l-.208 4.549 1.041.047.303-6.423Z" style="fill:#2857a4;fill-opacity:1;fill-rule:nonzero;stroke:none" transform="matrix(2.03033 0 0 -2.03035 98.527 21.4)"/><path d="M0 0c-.177-.499-.509-.973-1-1.42-.49-.448-1.11-.614-1.861-.495-.804.126-1.392.536-1.763 1.23-.371.695-.48 1.533-.326 2.515.155.987.515 1.754 1.081 2.298.565.546 1.249.755 2.054.629.787-.123 1.338-.482 1.652-1.072.313-.592.471-1.112.472-1.56l-1.112.166c-.018.268-.11.55-.276.846-.167.296-.457.477-.873.542-.474.073-.885-.074-1.232-.444-.346-.37-.573-.895-.679-1.575-.107-.681-.052-1.252.165-1.717.216-.464.56-.733 1.035-.808.393-.061.724.028.99.268.267.24.457.496.571.769z" style="fill:#2857a4;fill-opacity:1;fill-rule:nonzero;stroke:none" transform="matrix(2.03033 0 0 -2.03035 118.178 18.822)"/><path d="m0 0 .809 2.711-2.289.69-.821-2.717-.996.31 1.856 6.148.998-.301-.724-2.399 2.29-.691.731 2.396.984-.296L.987-.307Z" style="fill:#2857a4;fill-opacity:1;fill-rule:nonzero;stroke:none" transform="matrix(2.03033 0 0 -2.03035 125.15 25.468)"/><path d="M0 0c-.272-.599-.679-1.001-1.22-1.206-.54-.204-1.123-.164-1.752.121-.632.287-1.047.702-1.242 1.241-.195.541-.157 1.11.115 1.709l1.816 3.97.949-.432-1.685-3.704a2.46 2.46 0 0 1-.219-.961c-.01-.34.227-.621.714-.842.485-.221.853-.216 1.107.014.252.231.447.495.584.796L.844 4.412l.964-.439Z" style="fill:#2857a4;fill-opacity:1;fill-rule:nonzero;stroke:none" transform="matrix(2.03033 0 0 -2.03035 138.664 26.62)"/><path d="M0 0c.247.02.45.159.612.418.155.249.188.49.097.722-.09.233-.261.427-.513.583l-1.022.636-.94-1.508L-.748.206C-.496.05-.247-.019 0 0m-1.603-3.493-.038 2.922-.7.436-1.305-2.097-.88.558 3.392 5.452L.892 2.519c.462-.288.755-.69.881-1.206a1.838 1.838 0 0 0-.242-1.466A2.108 2.108 0 0 0 .571-1c-.399-.179-.774-.219-1.126-.12l.025-3.051z" style="fill:#2857a4;fill-opacity:1;fill-rule:nonzero;stroke:none" transform="matrix(2.03033 0 0 -2.03035 147.503 27.76)"/><path d="M0 0c-.405-.341-.934-.579-1.583-.714-.649-.137-1.268.037-1.855.52-.627.517-.924 1.169-.891 1.956.034.787.366 1.564.999 2.33.636.772 1.336 1.249 2.1 1.43.763.181 1.459.014 2.087-.503.616-.508.908-1.095.877-1.763-.031-.67-.16-1.198-.387-1.585l-.874.708c.123.241.186.531.193.871.008.339-.15.642-.475.91-.371.305-.798.386-1.286.244-.487-.142-.949-.478-1.387-1.01-.438-.532-.681-1.052-.731-1.561-.05-.512.11-.918.481-1.223.307-.254.637-.344.989-.274.351.071.645.196.883.373z" style="fill:#2857a4;fill-opacity:1;fill-rule:nonzero;stroke:none" transform="matrix(2.03033 0 0 -2.03035 157.363 39.503)"/><path d="m0 0 2.075 1.923-1.62 1.76-2.088-1.924-.7.775 4.725 4.348.706-.766-1.844-1.698 1.621-1.759L4.724 4.35l.695-.755L.694-.767Z" style="fill:#2857a4;fill-opacity:1;fill-rule:nonzero;stroke:none" transform="matrix(2.03033 0 0 -2.03035 159.982 48.768)"/><path d="m0 0 5.337 3.554.564-.847L.563-.848Z" style="fill:#2857a4;fill-opacity:1;fill-rule:nonzero;stroke:none" transform="matrix(2.03033 0 0 -2.03035 165.375 55.77)"/><path d="m0 0 2.938 4.14-4.014-2.15-.492.92 5.669 3.036.583-1.091L1.742.704l4.015 2.149.492-.919L.583-1.109Z" style="fill:#2857a4;fill-opacity:1;fill-rule:nonzero;stroke:none" transform="matrix(2.03033 0 0 -2.03035 170.8 64.953)"/><path d="m0 0 2.146 2.92-.362.186c-.12.061-.222.115-.305.162l-2.278-.723-.312.986L5 5.472l.313-.986-2.465-.783c.458-.216.972-.451 1.544-.706.57-.253 1.105-.465 1.605-.635l.379-1.194c-.58.188-1.156.401-1.723.636-.568.235-1.08.456-1.535.662L.375-1.179Z" style="fill:#2857a4;fill-opacity:1;fill-rule:nonzero;stroke:none" transform="matrix(2.03033 0 0 -2.03035 176.732 80.451)"/><path d="M0 0c.477-.197 1.045-.237 1.705-.119.654.117 1.17.348 1.545.698.377.348.521.758.438 1.231-.084.473-.362.806-.834 1.001-.473.194-1.037.234-1.691.118-.661-.118-1.181-.349-1.559-.697-.379-.346-.528-.755-.443-1.228C-.755.532-.476.198 0 0m4.171-.059c-.532-.582-1.29-.96-2.275-1.135-.978-.175-1.82-.08-2.523.282-.702.363-1.124.939-1.264 1.729-.141.791.056 1.477.591 2.059.535.582 1.292.962 2.271 1.135.984.176 1.826.082 2.526-.281.7-.363 1.121-.94 1.261-1.73.14-.791-.055-1.477-.587-2.059" style="fill:#2857a4;fill-opacity:1;fill-rule:nonzero;stroke:none" transform="matrix(2.03033 0 0 -2.03035 181.556 88.52)"/><path d="M0 0c.154-.193.385-.284.689-.272.293.012.511.12.653.326.141.205.206.455.194.752l-.047 1.203-1.777-.071.039-1.203C-.237.438-.154.193 0 0m-3.79-.635 2.396 1.672-.033.824-2.468-.097-.032 1.042 6.417.253.095-2.383A1.914 1.914 0 0 0 2.083-.73a1.847 1.847 0 0 0-1.351-.624 2.117 2.117 0 0 0-1.239.32c-.372.229-.616.518-.731.864l-2.511-1.734z" style="fill:#2857a4;fill-opacity:1;fill-rule:nonzero;stroke:none" transform="matrix(2.03033 0 0 -2.03035 187.01 98.998)"/><path d="m0 0 6.389-.543-.342-4.028-1.074.091.255 2.998-1.522.128-.251-2.841-1.057.081.243 2.851-1.664.141-.254-3.085-1.075.091Z" style="fill:#2857a4;fill-opacity:1;fill-rule:nonzero;stroke:none" transform="matrix(2.03033 0 0 -2.03035 179.34 103.38)"/><path d="m0 0-2.275 1.396-.374-1.688zm-4.528 2.773.221 1.042L1.497.281 1.241-.88l-6.747-.768.235 1.058 1.508.171.531 2.4z" style="fill:#2857a4;fill-opacity:1;fill-rule:nonzero;stroke:none" transform="matrix(2.03033 0 0 -2.03035 187.44 119.665)"/><path d="m0 0 2.876 2.129-.41.555L-.138.757l-.64.866 5.59 4.136.64-.865L3.38 3.359l.41-.554 2.209 1.634.641-.865L.641-.866Zm-.352 3.247a9.768 9.768 0 0 0-.854 1.033l-.665.899 4.062 3.007 1.608-2.172-.791-.585-.942 1.272-2.481-1.836.301-.407c.168-.216.357-.436.57-.656.212-.22.358-.37.439-.449l-.778-.576-.469.47" style="fill:#2857a4;fill-opacity:1;fill-rule:nonzero;stroke:none" transform="matrix(2.03033 0 0 -2.03035 25.897 157.048)"/><path d="m0 0-1.392-1.766-.885.7 3.388 4.293.885-.697L.63.798l.773-.61-.63-.798Zm-2.644 5.195.526.666 1.975-1.558-.524-.666zm.015-3.128a1.779 1.779 0 0 1-.448.5c-.202.16-.407.273-.615.34-.209.068-.36.041-.454-.079-.098-.126-.089-.278.028-.46.117-.183.277-.354.479-.514a1.95 1.95 0 0 1 .584-.326c.197-.065.341-.037.437.083.097.125.094.277-.011.456m-1.62 2.817.547.694L-.029 2.68l-.546-.693zm1.5-4.347c-.467.05-.947.271-1.44.661-.462.364-.781.774-.955 1.227-.173.454-.147.827.081 1.114.238.303.597.42 1.078.355.48-.066.953-.283 1.42-.651.494-.389.818-.804.975-1.245.156-.439.115-.811-.123-1.112-.224-.284-.569-.402-1.036-.349M-6.717.112-5.44 1.73l.951-.75-.698-.885 3.421-2.701-.577-.732Z" style="fill:#2857a4;fill-opacity:1;fill-rule:nonzero;stroke:none" transform="matrix(2.03033 0 0 -2.03035 50.828 168.563)"/><path d="m0 0 2.925 6.867.998-.426L.999-.425Zm.344 4.887-.605.257a4.552 4.552 0 0 0-.204-.566 7.211 7.211 0 0 0-.107-.242 2.464 2.464 0 0 0-.115-.217l.595-.254zm-1.456 1.371c.026.36-.052.579-.233.657-.19.081-.406-.012-.644-.279-.239-.266-.46-.639-.664-1.118-.2-.469-.315-.885-.345-1.25-.03-.365.05-.588.241-.67.181-.077.393.021.636.292.244.271.467.643.668 1.116.202.474.315.89.341 1.252M-1.338.939l.851 1.998-.782.332c-.289-.32-.597-.532-.925-.638a1.341 1.341 0 0 0-.966.043c-.47.199-.755.59-.855 1.17-.1.58.022 1.277.368 2.088.341.8.757 1.37 1.249 1.708.491.338.971.407 1.441.207.3-.129.522-.341.67-.64a2.2 2.2 0 0 0 .205-1.042l.821-.349.648 1.521 1.007-.429L-.332.51Z" style="fill:#2857a4;fill-opacity:1;fill-rule:nonzero;stroke:none" transform="matrix(2.03033 0 0 -2.03035 66.972 186.466)"/><path d="M0 0c-.337.108-.771.327-1.304.656s-.906.714-1.118 1.152c-.367-.406-.84-.684-1.421-.834C-4.424.824-4.891.737-5.245.71l-.528.868c.788.093 1.453.278 1.994.556.542.277.849.69.924 1.24l.048.361 1.268-.172-.049-.36c-.09-.662.162-1.2.754-1.614C-.242 1.175.282.878.738.696zm-2.253-1.209-.353-2.606-1.167.158.352 2.605-3.076.416.131.968L.972-.663l-.131-.965z" style="fill:#2857a4;fill-opacity:1;fill-rule:nonzero;stroke:none" transform="matrix(2.03033 0 0 -2.03035 93.665 183.815)"/><path d="M0 0a59.615 59.615 0 0 0-.085-1.411l-1.101-.146c.005.047.016.426.032 1.138.015.713-.009 1.36-.075 1.944L-5.876.911l-.128.968 5.864.776C-.006 1.646.041.76 0 0m-5.962-4.08-.128.967 1.56.208-.321 2.42 1.126.149.322-2.421.733.097-.32 2.422 1.135.15.32-2.422 2.786.369.128-.966z" style="fill:#2857a4;fill-opacity:1;fill-rule:nonzero;stroke:none" transform="matrix(2.03033 0 0 -2.03035 116.95 182.524)"/><path d="m0 0 .643-1.532-1.039-.436L-2.1 2.091l1.04.435.68-1.618.915.384.38-.907Zm-.287-3.187c-.324.002-.716-.093-1.176-.287-.456-.19-.801-.399-1.037-.627-.236-.229-.318-.425-.249-.592.068-.161.268-.247.6-.255.332-.008.727.086 1.188.279.46.193.803.407 1.026.641.224.236.303.43.238.587-.07.167-.267.253-.59.254m1.455-1.055C.814-4.706.214-5.114-.634-5.47c-.848-.357-1.562-.499-2.142-.43-.58.069-.954.305-1.122.707-.169.401-.076.834.28 1.299.355.464.958.874 1.806 1.231.848.356 1.561.497 2.14.424.578-.073.951-.31 1.12-.711.166-.396.073-.827-.28-1.292m-2.925 1.97c-.258-.022-.594.001-1.006.07-.412.07-.737.192-.975.369-.021-.286-.156-.627-.405-1.026a4.6 4.6 0 0 0-.763-.955l-1.004.544c.362.27.678.641.946 1.114.27.476.312.934.126 1.378l-.076.179-1.272-.533-.377.9L-2.909 1.3l.378-.898-1.304-.548.075-.18c.173-.411.489-.668.947-.766a5.194 5.194 0 0 1 1.29-.125z" style="fill:#2857a4;fill-opacity:1;fill-rule:nonzero;stroke:none" transform="matrix(2.03033 0 0 -2.03035 138.925 173.606)"/><path d="m0 0-.598.761 2.404 1.884-.591.754L-.44 2.101l-1.681 2.143 3.442 2.699-.486.622-3.443-2.702-.602.768 4.323 3.391 1.686-2.148-3.443-2.701.482-.614 3.549 2.785.601-.768-1.827-1.434.592-.753 2.476 1.942.596-.761Z" style="fill:#2857a4;fill-opacity:1;fill-rule:nonzero;stroke:none" transform="matrix(2.03033 0 0 -2.03035 152.119 175.584)"/><path d="M0 0c-.052-.193-.022-.33.086-.411.113-.084.254-.073.421.034.168.106.319.251.457.436.143.193.242.387.295.582.053.194.026.332-.083.414-.109.081-.248.069-.417-.036A1.774 1.774 0 0 1 .283.565 1.685 1.685 0 0 1 0 0m5.372.428L-.616 4.884l.669.898L6.04 1.326Zm-1.975-.87a39.99 39.99 0 0 0-1.344-1.914l-.809-1.087-.796.592 1.25 1.681-.449.335a2.7 2.7 0 0 0-.952-.572c-.338-.112-.629-.076-.874.105-.295.22-.413.554-.357 1.006.057.449.249.896.578 1.337.347.468.725.789 1.132.961.408.173.758.149 1.053-.07.245-.182.364-.439.358-.769a2.616 2.616 0 0 0-.24-1.017l.449-.335c.138.185.321.458.547.82.228.363.407.656.538.88l.776-.578a26.829 26.829 0 0 0-.86-1.375m-5.266-.225-.721.537L.122 3.517l.721-.537ZM-2.278.929l-.695.516 1.467 1.972.694-.517Z" style="fill:#2857a4;fill-opacity:1;fill-rule:nonzero;stroke:none" transform="matrix(2.03033 0 0 -2.03035 168.179 151.26)"/><path d="M0 0c-19.102 0-34.643-15.54-34.643-34.64 0-19.103 15.541-34.644 34.643-34.644S34.642-53.743 34.642-34.64C34.642-15.54 19.102 0 0 0m0-71.284c-20.205 0-36.643 16.438-36.643 36.644C-36.643-14.437-20.205 2 0 2c20.204 0 36.642-16.437 36.642-36.64 0-20.206-16.438-36.644-36.642-36.644" style="fill:#2857a4;fill-opacity:1;fill-rule:nonzero;stroke:none" transform="matrix(2.03033 0 0 -2.03035 100.002 29.663)"/><path d="M0 0c-26.056 0-47.254-21.196-47.254-47.25 0-26.057 21.198-47.255 47.254-47.255 26.055 0 47.252 21.198 47.252 47.255C47.252-21.196 26.055 0 0 0m0-96.505c-27.159 0-49.254 22.095-49.254 49.255C-49.254-20.093-27.159 2 0 2c27.157 0 49.252-22.093 49.252-49.25 0-27.16-22.095-49.255-49.252-49.255" style="fill:#2857a4;fill-opacity:1;fill-rule:nonzero;stroke:none" transform="matrix(2.03033 0 0 -2.03035 100.002 4.06)"/><path d="M0 0a1.608 1.608 0 0 0-1.182-.488c-.462 0-.856.162-1.181.488-.326.326-.49.72-.49 1.182 0 .463.164.857.49 1.182.325.326.719.489 1.181.489.462 0 .857-.163 1.182-.489.326-.325.489-.719.489-1.182A1.61 1.61 0 0 0 0 0" style="fill:#2857a4;fill-opacity:1;fill-rule:nonzero;stroke:none" transform="matrix(2.03033 0 0 -2.03035 182.114 135.754)"/><path d="M0 0a1.606 1.606 0 0 0-1.182-.488c-.462 0-.855.162-1.181.488a1.61 1.61 0 0 0-.489 1.182c0 .463.163.857.489 1.182.326.326.719.489 1.181.489.463 0 .857-.163 1.182-.489.326-.325.489-.719.489-1.182A1.61 1.61 0 0 0 0 0" style="fill:#2857a4;fill-opacity:1;fill-rule:nonzero;stroke:none" transform="matrix(2.03033 0 0 -2.03035 23.543 135.754)"/><path d="M0 0a158.15 158.15 0 0 1-9.574-12.846c3.57 2.682 7.993 4.291 12.803 4.291 4.679 0 8.994-1.523 12.513-4.076A152.524 152.524 0 0 1 3.237 3.739 105.16 105.16 0 0 1 0 0" style="fill:#2857a4;fill-opacity:1;fill-rule:nonzero;stroke:none" transform="matrix(2.03033 0 0 -2.03035 94.022 39.615)"/><path d="M0 0c6.12.447 12.84 1.293 20.082 2.73-.164.603-.549 1.95-1.221 3.919-.935 2.74-2.423 6.666-4.631 11.412a132.281 132.281 0 0 1-1.766 3.65c.077-.74.12-1.49.12-2.251C12.584 10.795 7.415 3.35 0 0" style="fill:#2857a4;fill-opacity:1;fill-rule:nonzero;stroke:none" transform="matrix(2.03033 0 0 -2.03035 118.388 139.854)"/><path d="M0 0c0 1.046.101 2.066.246 3.072-3.187-6.147-6.08-12.911-8.106-20.009.829-.223 3.173-.819 6.869-1.418 3.557-.577 8.362-1.152 14.224-1.395C5.47-16.552 0-8.917 0 0" style="fill:#2857a4;fill-opacity:1;fill-rule:nonzero;stroke:none" transform="matrix(2.03033 0 0 -2.03035 57.21 100.342)"/><path d="m0 0-.267-.234L0 0a152.566 152.566 0 0 0 13.326-17.52c.333-.267.649-.552.965-.838A152.889 152.889 0 0 1 .266.234L.008.527-.259.244c-.01-.013-6.974-7.405-14.469-18.967.346.329.692.657 1.058.961C-6.488-6.895 0 0 0 0" style="fill:#2857a4;fill-opacity:1;fill-rule:nonzero;stroke:none" transform="matrix(2.03033 0 0 -2.03035 100.61 30.947)"/><path d="M0 0c2.138 7.604 5.271 14.822 8.706 21.322.094.476.219.939.344 1.403C5.349 15.893 1.942 8.215-.342.097L-.436-.24l.332-.099c.027-.007 8.864-2.642 23.943-3.016-.415.117-.821.249-1.226.391C8.326-2.484 0 0 0 0" style="fill:#2857a4;fill-opacity:1;fill-rule:nonzero;stroke:none" transform="matrix(2.03033 0 0 -2.03035 40.365 135.229)"/><path d="m0 0-.09.359c-.005.022-2.179 8.817-8.774 21.453.084-.385.14-.779.203-1.172C-2.491 8.582-.434.275-.434.275a164.873 164.873 0 0 0-21.559-2.889 20.73 20.73 0 0 0-1.135-.416A164.351 164.351 0 0 1-.365-.073z" style="fill:#2857a4;fill-opacity:1;fill-rule:nonzero;stroke:none" transform="matrix(2.03033 0 0 -2.03035 160.934 135.425)"/><path d="M0 0c-3.695.599-6.04 1.195-6.869 1.418C-4.843 8.516-1.95 15.28 1.237 21.427c.052.357.094.717.163 1.067-3.435-6.5-6.568-13.717-8.706-21.322 0 0 8.327-2.484 22.614-2.964-.364.127-.729.25-1.083.396C8.362-1.152 3.558-.577 0 0" style="fill:#2857a4;fill-opacity:1;fill-rule:nonzero;stroke:none" transform="matrix(2.03033 0 0 -2.03035 55.198 137.609)"/><path d="M0 0c2.208-4.746 3.695-8.672 4.631-11.412a67.17 67.17 0 0 0 1.221-3.919 164.82 164.82 0 0 0-20.082-2.73 21.619 21.619 0 0 0-1.039-.433c6.518.432 13.743 1.32 21.56 2.89 0 0-2.058 8.306-8.228 20.364.059-.369.13-.734.17-1.11A135.341 135.341 0 0 0 0 0" style="fill:#2857a4;fill-opacity:1;fill-rule:nonzero;stroke:none" transform="matrix(2.03033 0 0 -2.03035 147.28 103.183)"/><path d="M0 0a158.638 158.638 0 0 0 8.315 10.995 104.425 104.425 0 0 0 3.238 3.738A152.55 152.55 0 0 0 24.058-1.636c.279-.203.559-.405.829-.62a152.768 152.768 0 0 1-13.326 17.52S5.072 8.369-2.109-2.498c.273.228.565.433.85.647C-.836-1.22-.416-.602 0 0" style="fill:#2857a4;fill-opacity:1;fill-rule:nonzero;stroke:none" transform="matrix(2.03033 0 0 -2.03035 77.14 61.938)"/><path d="M148.592 169.321h-3.455v3.713h3.455zm-2.67-4.706c-.052.305-.119.632-.201.98-.081.35-.175.67-.272.966a15.33 15.33 0 0 1-.356.96c-.103.243-.181.42-.24.532h5.116v6.225h-6.209v-4.652a6.39 6.39 0 0 1-1.238 1.381c-.434.35-.763.594-.987.73l-.82-1.174c.192-.1.556-.366 1.1-.8.543-.431 1.054-1.048 1.535-1.847.289-.464.542-.988.757-1.575.215-.59.365-1.163.447-1.726h-2.805v-1.256h9.277v1.256z" style="fill:#2857a4;fill-opacity:1;fill-rule:nonzero;stroke:none;stroke-width:1.76141" transform="matrix(1.15267 0 0 1.15269 -56.88 -93.634)"/><path d="m0 0 1.925-.035v2.073l-1.89.033Zm-.035-.035L0 2.107h1.96v-.036h.035L1.96-.072Zm-.746-.67 3.489-.036.035 3.499H-.222l.029.051c.032.061.078.161.135.299a6.664 6.664 0 0 1 .355 1.087c.046.199.085.381.111.553l.037-.006v.037l2.863-.037.035.677-5.233.038-.035-.678 1.629-.041a5.023 5.023 0 0 0-.257-.986 4.69 4.69 0 0 0-.431-.899c-.275-.458-.568-.811-.879-1.061a6.754 6.754 0 0 0-.596-.437l.423-.606c.124.079.301.209.529.394.243.197.476.456.695.776l.064.099zm-.036-.036v2.528a3.425 3.425 0 0 0-.646-.698A6.216 6.216 0 0 0-2.026.67l-.029-.017-.507.726.035.019c.104.054.311.206.62.45.302.242.59.59.861 1.042.163.259.306.553.427.886.121.333.206.657.288.932l-1.63.034.036.75 5.303-.035-.035-.749H.475a9.58 9.58 0 0 0-.11-.53 6.065 6.065 0 0 0-.154-.551 8.83 8.83 0 0 0-.203-.547 4.523 4.523 0 0 0-.113-.253l2.882-.035-.034-3.568Z" style="fill:#2857a4;fill-opacity:1;fill-rule:nonzero;stroke:none" transform="matrix(2.03033 0 0 -2.03035 110.415 105.746)"/><path d="m0 0 .026.016L0 .032Z" style="fill:#2857a4;fill-opacity:1;fill-rule:nonzero;stroke:none" transform="matrix(2.03033 0 0 -2.03035 100.543 127.218)"/><path d="M0 0v18.5s5.959 4.277 13.897 2.667L8.397 3.3S4.452 2.987 0 0m16.437 18.995-2.049 2.647C6.655 23.221-.055 19.122-.332 18.95l.026-.016V-1.59c5.041 3.286 10.944 3.635 10.944 3.635z" style="fill:#2857a4;fill-opacity:1;fill-rule:nonzero;stroke:none" transform="matrix(2.03033 0 0 -2.03035 101.271 123.924)"/><path d="M0 0v.032A.226.226 0 0 1-.026.016L0 0" style="fill:#2857a4;fill-opacity:1;fill-rule:nonzero;stroke:none" transform="matrix(2.03033 0 0 -2.03035 100.65 127.218)"/><path d="M0 0c-4.451 2.987-8.396 3.3-8.396 3.3l-5.501 17.867C-5.959 22.777 0 18.5 0 18.5Zm.371 18.95c-.277.172-6.987 4.271-14.72 2.692l-2.048-2.647 5.798-16.95S-4.696 1.696.345-1.59v20.524l.026.016" style="fill:#2857a4;fill-opacity:1;fill-rule:nonzero;stroke:none" transform="matrix(2.03033 0 0 -2.03035 99.843 123.924)"/><path d="m0 0-.026-.016V-20.54L0-20.556l.026.016V-.016L0 0" style="fill:#2857a4;fill-opacity:1;fill-rule:nonzero;stroke:none" transform="matrix(2.03033 0 0 -2.03035 100.597 85.45)"/><path d="M129.692 169.945h-5.366v3.061h5.366zm0-4.157h-5.366v2.859h5.366zm-6.78 8.516v-9.827h3.104l.634-2.261 1.478.412-.635 1.85h3.604v9.826z" style="fill:#2857a4;fill-opacity:1;fill-rule:nonzero;stroke:none;stroke-width:1.76141" transform="matrix(1.15267 0 0 1.15269 -56.88 -93.634)"/><path d="m0 0 3.01-.036v1.588l-2.977.035Zm-.037-.036L0 1.623h3.045v-.036h.036L3.045-.071ZM0-2.475l3.01-.035v1.702L.033-.772Zm-.037-.035L0-.737h3.045v-.035h.036l-.036-1.774Zm3.843-.738.037 5.542H1.746l.365 1.063-.769.216-.384-1.279-1.729.038v-5.544zm-4.612-.035v.035h-.035l.035 5.615 1.729-.026.371 1.318.909-.253-.357-1.039 2.032-.035-.035-5.615Z" style="fill:#2857a4;fill-opacity:1;fill-rule:nonzero;stroke:none" transform="matrix(2.03033 0 0 -2.03035 86.43 100.69)"/></svg>